<svg width="168" height="154" viewBox="0 0 168 154" fill="none" xmlns="http://www.w3.org/2000/svg">
<path d="M47.8052 73C47.8052 82.9411 55.864 91 65.8052 91L92.8052 91C95.5666 91 97.8052 88.7614 97.8052 86L97.8052 52C97.8052 46.4772 93.328 42 87.8052 42L52.8052 42C50.0437 42 47.8052 44.2386 47.8052 47L47.8052 73Z" fill="#FFF1DA"/>
<path d="M96.389 86.9418C95.0306 87.246 93.7076 87.8096 92.5021 88.597C89.3613 90.5983 87.534 93.455 88.4209 94.9772C89.3079 96.4993 92.5729 96.11 95.7137 94.1087C96.9355 93.3491 98.0209 92.3783 98.903 91.2564C99.3124 90.7143 99.3859 90.0388 99.0907 89.5339L97.9385 87.5565C97.6453 87.05 97.0372 86.8091 96.389 86.9418Z" fill="#D5D6DB"/>
<path d="M88.5021 59.9486C87.5171 60.1693 86.5577 60.5781 85.6834 61.1492C83.4066 62.6 82.0808 64.6714 82.7234 65.7742C83.366 66.8769 85.7345 66.5944 88.0111 65.1438C88.897 64.5927 89.6839 63.8884 90.3237 63.0748C90.6202 62.6819 90.6733 62.1925 90.4593 61.8264L89.6251 60.3947C89.4128 60.0275 88.9722 59.8525 88.5021 59.9486Z" fill="#D5D6DB"/>
<path d="M75.6879 61.0791C75.4686 61.0546 75.2348 61.113 75.032 61.2426L69.6839 64.6508C69.2365 64.935 69.0575 65.4823 69.2844 65.8735C69.3363 65.9631 69.4073 66.0397 69.4936 66.0987L82.6752 75.1836L100.509 63.8189L75.6879 61.0791Z" fill="#029BC5"/>
<path d="M132.065 59.7948L83.5327 90.3469L54.82 101.772L40.1769 104.683L38.5659 101.946L119.461 51.9992C121.872 50.5043 124.557 49.5868 127.246 49.3397C128.424 49.2378 129.587 49.2769 130.708 49.4557C131.702 49.6064 132.645 49.8971 133.508 50.3192C134.472 50.7975 136.307 50.8526 136.901 51.8054C136.903 51.8039 138.305 56.1783 132.065 59.7948Z" fill="#E1E6E9"/>
<path d="M84.1761 86.3038L63.1808 119.774C62.9186 120.244 63.0743 120.77 63.5281 120.95C63.8067 121.06 64.1476 121.016 64.434 120.834L69.778 117.444C70.8059 116.792 71.716 115.963 72.4521 115.01L113.169 67.1406L84.1761 86.3038Z" fill="#029BC5"/>
<path d="M31.1965 85.1866C30.8463 85.0669 30.4295 85.129 30.0777 85.353L25.6602 88.1664C25.0583 88.5495 24.8184 89.2859 25.1243 89.8116C25.1825 89.9115 25.2582 89.9995 25.349 90.0719L37.7257 99.9843L50.7387 91.8561L31.1965 85.1866Z" fill="#029BC5"/>
<path d="M41.8741 101.771L35.2126 111.101C35.1149 111.235 35.1379 111.403 35.2638 111.476C35.3547 111.529 35.4787 111.52 35.5795 111.452L39.7077 108.836C39.7398 108.816 39.7688 108.79 39.7928 108.761L49.5264 96.9265L41.8741 101.771Z" fill="#029BC5"/>
<path d="M129.911 49.8577C128.757 49.6723 127.559 49.6327 126.346 49.7393C125.165 51.3904 124.411 53.2451 124.157 55.1185C124.139 55.4948 124.442 55.7657 124.835 55.7235C124.957 55.7102 125.078 55.6673 125.188 55.5986L132.796 50.7543C131.906 50.3157 130.935 50.0139 129.911 49.8577Z" fill="#029BC5"/>
<path d="M113.332 58.7656L118.299 55.6287L122.926 63.4977L117.959 66.6346L113.332 58.7656Z" fill="#D5D6DB"/>
<path d="M110.207 61.8782C109.608 62.2574 109.369 62.9862 109.673 63.5059L110.165 64.3478C110.489 64.8543 111.228 64.9434 111.816 64.5467C112.376 64.1689 112.602 63.4822 112.332 62.9752L111.84 62.1332C111.536 61.6139 110.805 61.4996 110.207 61.8782Z" fill="#3A556A"/>
<path d="M105.742 64.6507C105.144 65.0298 104.904 65.7586 105.208 66.2783L105.701 67.1203C106.025 67.6268 106.764 67.7158 107.352 67.3191C107.912 66.9413 108.137 66.2547 107.868 65.7476L107.375 64.9057C107.071 64.3865 106.341 64.2723 105.742 64.6507Z" fill="#3A556A"/>
<path d="M101.276 67.4239C100.679 67.8036 100.44 68.5315 100.744 69.0508L101.236 69.8927C101.56 70.3992 102.299 70.4882 102.887 70.0915C103.447 69.7137 103.673 69.0271 103.403 68.5201L102.911 67.6781C102.607 67.1584 101.875 67.0446 101.276 67.4239Z" fill="#3A556A"/>
<path d="M96.8121 70.1964C96.2142 70.576 95.9758 71.304 96.2794 71.8232L96.7717 72.6652C97.0956 73.1717 97.8348 73.2608 98.4231 72.864C98.9829 72.4863 99.2084 71.7996 98.9386 71.2926L98.4463 70.4506C98.1422 69.931 97.4106 69.8172 96.8121 70.1964Z" fill="#3A556A"/>
<path d="M92.3481 72.9691C91.7499 73.3489 91.5113 74.0771 91.8151 74.5966L92.3077 75.4389C92.6114 75.9582 93.3427 76.0719 93.941 75.6929C94.5394 75.3139 94.7783 74.5858 94.4746 74.0665L93.982 73.2241C93.6791 72.7044 92.9481 72.5899 92.3494 72.9683C92.3489 72.9686 92.3486 72.9687 92.3481 72.9691Z" fill="#3A556A"/>
<path d="M87.8837 75.7415C87.2855 76.1213 87.047 76.8496 87.3508 77.3691L87.8434 78.2114C88.147 78.7307 88.8783 78.8444 89.4767 78.4654C90.075 78.0864 90.3139 77.3582 90.0103 76.8389L89.5177 75.9966C89.2148 75.4769 88.4838 75.3624 87.885 75.7407C87.8845 75.741 87.884 75.7414 87.8837 75.7415Z" fill="#3A556A"/>
<path d="M83.4191 78.514C82.8209 78.8938 82.5824 79.622 82.8862 80.1415L83.3788 80.9838C83.6832 81.5026 84.4148 81.6152 85.0125 81.2357C85.6092 80.8568 85.8476 80.1302 85.5454 79.6116L85.0528 78.7692C84.7492 78.2496 84.018 78.1353 83.4191 78.514Z" fill="#3A556A"/>
<path d="M78.9545 81.2864C78.3563 81.6662 78.1178 82.3945 78.4216 82.914L78.9142 83.7563C79.2186 84.2751 79.9502 84.3877 80.5479 84.0082C81.1446 83.6293 81.383 82.9027 81.0808 82.384L80.5882 81.5417C80.2846 81.022 79.5534 80.9077 78.9545 81.2864Z" fill="#3A556A"/>
<path d="M74.4902 84.0589C73.8919 84.4387 73.6534 85.1669 73.9572 85.6864L74.4498 86.5287C74.7542 87.0475 75.4858 87.1601 76.0836 86.7806C76.6803 86.4018 76.9187 85.6751 76.6164 85.1565L76.1238 84.3142C75.82 83.7947 75.0888 83.6804 74.4902 84.0589Z" fill="#3A556A"/>
<path d="M70.0243 86.8323C69.426 87.2113 69.1871 87.9395 69.4908 88.4588L69.4914 88.4599L69.984 89.3022C70.2884 89.821 71.02 89.9336 71.6177 89.5541C72.2144 89.1752 72.4528 88.4486 72.1506 87.9299L71.658 87.0876C71.3545 86.5679 70.6232 86.4536 70.0243 86.8323Z" fill="#3A556A"/>
<path d="M65.5612 89.6038C64.9629 89.9828 64.724 90.711 65.0276 91.2302L65.0283 91.2313L65.5209 92.0736C65.8253 92.5924 66.5569 92.705 67.1546 92.3255C67.7514 91.9467 67.9898 91.22 67.6875 90.7014L67.1949 89.8591C66.8911 89.3396 66.1599 89.2253 65.5612 89.6038Z" fill="#3A556A"/>
</svg>
